Coordinates
version=1
nRows=14
nColumns=24
inDegrees=yes

Units are S.I. units (second, meters, Newtons, ...)
Angles are in degrees.

endheader
time	pelvis_tilt	pelvis_list	pelvis_rotation	pelvis_tx	pelvis_ty	pelvis_tz	hip_flexion_r	hip_adduction_r	hip_rotation_r	knee_angle_r	ankle_angle_r	subtalar_angle_r	mtp_angle_r	hip_flexion_l	hip_adduction_l	hip_rotation_l	knee_angle_l	ankle_angle_l	subtalar_angle_l	mtp_angle_l	lumbar_extension	lumbar_bending	lumbar_rotation
      5.22000000	     -0.34558999	      4.15981917	      1.00531224	      0.77704673	      1.00622921	     -0.20928537	     21.71482885	     -1.38610459	      6.93368490	     -6.15138137	     10.68396685	     -6.16393490	      0.00000000	    -17.26568978	      6.92169429	      3.43221316	     -9.77985830	     15.33873490	     -4.62106415	      0.00000000	    -11.69756832	     -3.77682045	     -7.79648759
      5.22500000	     -0.30336644	      4.05697147	      1.02425906	      0.78410384	      1.00579981	     -0.20880360	     21.75674409	     -1.19661198	      6.63067061	     -7.01613184	     10.48894420	     -5.76018284	      0.00000000	    -17.20609906	      6.72776834	      3.04043452	    -10.75543036	     15.38953507	     -3.85691527	      0.00000000	    -11.75865050	     -3.64614612	     -7.73374764
      5.23000000	     -0.27372449	      3.92054683	      1.04220366	      0.79118368	      1.00541786	     -0.20833256	     21.81380231	     -0.98117645	      6.31716979	     -7.89966937	     10.16706515	     -5.37077259	      0.00000000	    -17.10697510	      6.49705481	      2.61332738	    -11.77286055	     15.40629104	     -3.09696609	      0.00000000	    -11.80336619	     -3.46785393	     -7.65506502
      5.23500000	     -0.25626235	      3.75548824	      1.06087471	      0.79825508	      1.00511773	     -0.20783515	     21.88598181	     -0.74182337	      5.99860962	     -8.77820474	      9.70123328	     -5.04474114	      0.00000000	    -16.96755984	      6.23057744	      2.16172002	    -12.82933398	     15.35728680	     -2.35131680	      0.00000000	    -11.83651930	     -3.26351527	     -7.56829850
      5.24000000	     -0.25275845	      3.55503932	      1.07897670	      0.80532638	      1.00491539	     -0.20732079	     21.97202607	     -0.47210321	      5.69177617	     -9.63735723	      9.11960886	     -4.80704774	      0.00000000	    -16.78412647	      5.92149859	      1.67624160	    -13.92447929	     15.23457410	     -1.62130467	      0.00000000	    -11.85454896	     -3.01976084	     -7.47279435
      5.24500000	     -0.26211721	      3.32669050	      1.09246850	      0.81236817	      1.00479319	     -0.20680236	     22.07402165	     -0.17627575	      5.43658126	    -10.47701967	      8.48764358	     -4.69371136	      0.00000000	    -16.54987590	      5.58016329	      1.16383854	    -15.07453297	     15.04865684	     -0.91966473	      0.00000000	    -11.86508341	     -2.74257816	     -7.36092822
      5.25000000	     -0.28490539	      3.07142560	      1.10342013	      0.81941381	      1.00476314	     -0.20626966	     22.18792429	      0.14779980	      5.24550489	    -11.29729106	      7.84226874	     -4.72398273	      0.00000000	    -16.26773096	      5.20296259	      0.61274931	    -16.26984524	     14.77612565	     -0.24371113	      0.00000000	    -11.85889503	     -2.43945052	     -7.23977900
      5.25500000	     -0.32667993	      2.82343804	      1.08868459	      0.82643153	      1.00479696	     -0.20566868	     22.32096640	      0.48242792	      5.20592877	    -12.10332821	      7.21540056	     -4.95560570	      0.00000000	    -15.92385927	      4.82762938	      0.00831436	    -17.52379228	     14.40109689	      0.41804062	      0.00000000	    -11.83505521	     -2.15793499	     -7.08457656
      5.26000000	     -0.35819296	      2.52980863	      1.10602174	      0.83351010	      1.00493096	     -0.20518896	     22.44182701	      0.84477372	      5.11229994	    -12.92494700	      6.73998174	     -5.19621230	      0.00000000	    -15.56082740	      4.39536876	     -0.57358248	    -18.81916594	     13.92250341	      0.97757895	      0.00000000	    -11.81503614	     -1.80188134	     -6.97434656
      5.26500000	     -0.39453950	      2.26516737	      1.10569401	      0.84057862	      1.00511514	     -0.20466631	     22.57008699	      1.19445557	      5.11118387	    -13.76100668	      6.38142053	     -5.55347531	      0.00000000	    -15.14563347	      3.98078945	     -1.21399941	    -20.17898061	     13.31607864	      1.51613374	      0.00000000	    -11.78818223	     -1.49139856	     -6.84008314
      5.27000000	     -0.43148469	      2.01962779	      1.09943336	      0.84765595	      1.00533766	     -0.20416287	     22.69864737	      1.53172086	      5.14306024	    -14.61654433	      6.18199785	     -5.94559550	      0.00000000	    -14.68792178	      3.57533314	     -1.87471234	    -21.59313454	     12.57901950	      1.98944848	      0.00000000	    -11.76070252	     -1.19887305	     -6.70122485
      5.27500000	     -0.45435688	      1.80332345	      1.09653970	      0.85478720	      1.00561044	     -0.20365408	     22.80512956	      1.84415508	      5.14774131	    -15.48395983	      6.16274360	     -6.33516835	      0.00000000	    -14.20535323	      3.18048146	     -2.56410948	    -23.05456493	     11.67231457	      2.39242564	      0.00000000	    -11.73789299	     -0.94829101	     -6.55583744
      5.28000000	     -0.49833789	      1.59905010	      1.07103251	      0.86184524	      1.00585165	     -0.20315135	     22.93971181	      2.15678578	      5.23317164	    -16.38044707	      6.26034567	     -6.69664013	      0.00000000	    -13.64493795	      2.78961709	     -3.28412496	    -24.58717659	     10.65837588	      2.72182987	      0.00000000	    -11.70727890	     -0.70249011	     -6.43158247
      5.28500000	     -0.53287372	      1.42179744	      1.04734787	      0.86895632	      1.00612552	     -0.20264216	     23.04337627	      2.44270913	      5.26378286	    -17.25627886	      6.50671984	     -7.00012671	      0.00000000	    -13.05518661	      2.40248158	     -4.03476146	    -26.15904542	      9.45316437	      2.97554991	      0.00000000	    -11.67273470	     -0.49365580	     -6.29729646
